<svg xmlns="http://www.w3.org/2000/svg" xmlns:xlink="http://www.w3.org/1999/xlink"><symbol id="arrow-left" viewBox="0 0 156.07 156.07"><g xmlns="http://www.w3.org/2000/svg" transform="matrix(-1 0 0 -1 127.32001 156.07)"><g data-name="Layer 2"><path d="M10.52 144.16c1.6-6 6.59-9.36 9.77-14 3.39-5 7.08-9.7 10.69-14.5 3.43-4.58 7-9.05 10.38-13.68q5.3-7.27 10.31-14.77c3.14-4.71 7.27-8.82 9.24-14.65a43.89 43.89 0 0 0-4.21-4.2c-11.17-8.55-21-18.6-31.07-28.29A244.78 244.78 0 0 0 .49 19c-1.36-3.78.28-7.13 2.85-9.94a67.92 67.92 0 0 1 8.23-7.49c3.09-2.41 6.61-1.78 9.74-.1 5.05 2.7 9.91 5.72 14.85 8.62.49.29.92.69 1.42 1C55.06 20.81 69.32 34.42 83 48.78c3.94 4.15 8.07 8.11 12 12.29 4.29 4.59 4.69 6.89 1.68 12.21C93 79.74 89 86 85.09 92.35c-2.53 4.15-5.14 8.25-7.61 12.44-7.88 13.38-18.22 24.89-27.89 36.92a71.4 71.4 0 0 1-12.19 11.95c-4 3.07-7.49 3.2-11.8.42-4.79-3.08-9.51-6.25-15.08-9.92Zm77.72-76.8c-16.66-22.57-52.8-52-71.87-58.5-2.31 1.85-4.8 3.67-5.83 7.31 2.43 2 4.84 4 7.17 6.06 6.65 5.85 13.58 11.45 19.84 17.7a342.33 342.33 0 0 0 29.29 26.42c1.75 1.39 3.29 3 5.27 4.88-1.68 3.57-2.85 7.17-4.89 10.17q-9.39 13.83-19.37 27.25c-7.52 10.09-15.36 19.93-23 29.91a23.3 23.3 0 0 0-1.64 2.92c1.79 3.2 4.59 4.31 7.38 5.13 6.78-4.46 19-17.77 28.65-31 13.91-19.11 26.92-40.75 29-48.25Z" data-name="Layer 1"/></g></g></symbol><symbol id="arrow-right" viewBox="-28.75 0 156.07 156.07">
  <g data-name="Layer 2">
    <path d="M10.52 144.16c1.6-6 6.59-9.36 9.77-14 3.39-5 7.08-9.7 10.69-14.5 3.43-4.58 7-9.05 10.38-13.68q5.3-7.27 10.31-14.77c3.14-4.71 7.27-8.82 9.24-14.65a43.89 43.89 0 0 0-4.21-4.2c-11.17-8.55-21-18.6-31.07-28.29A244.78 244.78 0 0 0 .49 19c-1.36-3.78.28-7.13 2.85-9.94a67.92 67.92 0 0 1 8.23-7.49c3.09-2.41 6.61-1.78 9.74-.1 5.05 2.7 9.91 5.72 14.85 8.62.49.29.92.69 1.42 1C55.06 20.81 69.32 34.42 83 48.78c3.94 4.15 8.07 8.11 12 12.29 4.29 4.59 4.69 6.89 1.68 12.21C93 79.74 89 86 85.09 92.35c-2.53 4.15-5.14 8.25-7.61 12.44-7.88 13.38-18.22 24.89-27.89 36.92a71.4 71.4 0 0 1-12.19 11.95c-4 3.07-7.49 3.2-11.8.42-4.79-3.08-9.51-6.25-15.08-9.92Zm77.72-76.8c-16.66-22.57-52.8-52-71.87-58.5-2.31 1.85-4.8 3.67-5.83 7.31 2.43 2 4.84 4 7.17 6.06 6.65 5.85 13.58 11.45 19.84 17.7a342.33 342.33 0 0 0 29.29 26.42c1.75 1.39 3.29 3 5.27 4.88-1.68 3.57-2.85 7.17-4.89 10.17q-9.39 13.83-19.37 27.25c-7.52 10.09-15.36 19.93-23 29.91a23.3 23.3 0 0 0-1.64 2.92c1.79 3.2 4.59 4.31 7.38 5.13 6.78-4.46 19-17.77 28.65-31 13.91-19.11 26.92-40.75 29-48.25Z" data-name="Layer 1"/>
  </g>
</symbol><symbol id="facebook" viewBox="0 0 8 15"><g fill="none">
<path fill-rule="evenodd" clip-rule="evenodd" d="M5.45703 15V8.25H7.64295L8 5.25H5.45703V3.789C5.45703 3.0165 5.47807 2.25 6.62951 2.25H7.79575V0.105C7.79575 0.07275 6.794 0 5.78055 0C3.664 0 2.33873 1.24275 2.33873 3.525V5.25H0V8.25H2.33873V15H5.45703Z" fill="white"/>
</g></symbol><symbol id="google" viewBox="0 0 14 14"><g fill="none">
<path fill-rule="evenodd" clip-rule="evenodd" d="M13.8751 5.60271H7.14791C7.14791 6.30231 7.14791 7.70152 7.14362 8.40113H11.0418C10.8925 9.10074 10.3628 10.0802 9.61449 10.5734C9.61377 10.5727 9.61306 10.5776 9.61163 10.5769C8.61671 11.2338 7.30372 11.3829 6.32881 11.187C4.80069 10.8833 3.59134 9.77516 3.10032 8.36755C3.10317 8.36545 3.10532 8.34586 3.10746 8.34446C2.80012 7.47135 2.80012 6.30231 3.10746 5.60271H3.10675C3.50272 4.31683 4.74851 3.14359 6.27878 2.82247C7.50957 2.56152 8.89832 2.84416 9.91968 3.79982C10.0555 3.6669 11.7995 1.96405 11.9303 1.82553C8.44088 -1.33459 2.85373 -0.222915 0.763104 3.85789H0.762389C0.762389 3.85789 0.763104 3.85789 0.758816 3.86558C-0.275418 5.86996 -0.232534 8.23183 0.765963 10.1404C0.763104 10.1425 0.76096 10.1438 0.758816 10.1459C1.66368 11.902 3.31045 13.2487 5.29458 13.7615C7.40236 14.3142 10.0848 13.9364 11.8817 12.3112C11.8824 12.3119 11.8831 12.3126 11.8838 12.3133C13.4062 10.9421 14.354 8.60612 13.8751 5.60271Z" fill="white"/>
</g></symbol><symbol id="linkedin" viewBox="0 0 16 16"><g fill="none">
<path fill-rule="evenodd" clip-rule="evenodd" d="M16 16H12.9231V10.3967C12.9231 8.85961 12.2715 8.00218 11.1031 8.00218C9.83154 8.00218 9.07692 8.89563 9.07692 10.3967V16H6V5.59243H9.07692V6.76288C9.07692 6.76288 10.0423 5 12.2177 5C14.3938 5 16 6.3818 16 9.24148C16 12.1004 16 16 16 16ZM1.50031 3C0.671513 3 0 2.32819 0 1.4997C0 0.671815 0.671513 0 1.50031 0C2.32849 0 3 0.671815 3 1.4997C3.00061 2.32819 2.32849 3 1.50031 3ZM0 16H3V6H0V16Z" fill="white"/>
</g></symbol><symbol id="mountains-card" viewBox="0 0 88 73"><g fill="none">
<path d="M43.7772 2.49948L43.8 2.50052L43.8228 2.49948L77.1666 0.97693C82.5778 0.729845 87.1 5.05024 87.1 10.467V62.6816C87.1 68.045 82.6631 72.345 77.3023 72.1769L23.8157 70.5002L23.7869 70.4993L23.7581 70.5018L11.4093 71.5395C5.661 72.0225 0.812369 67.313 1.12798 61.5531L2.49925 36.5274L2.50075 36.5L2.49925 36.4726L1.10424 11.0137C0.796591 5.3991 5.40614 0.747377 11.0234 1.00387L43.7772 2.49948Z" fill="white" stroke="#1C1C1D"/>
<path d="M27.8069 36.4964C28.4343 35.4097 30.0029 35.4097 30.6303 36.4964L36.7477 47.092C37.3751 48.1787 36.5908 49.5372 35.336 49.5372H23.1013C21.8464 49.5372 21.0622 48.1787 21.6896 47.092L27.8069 36.4964Z" fill="#1C1C1D"/>
<path d="M38.6765 32.0578C39.5223 30.6012 41.6367 30.6012 42.4824 32.0578L50.7285 46.2598C51.5742 47.7164 50.517 49.5372 48.8255 49.5372H32.3334C30.6419 49.5372 29.5847 47.7164 30.4305 46.2598L38.6765 32.0578Z" fill="#1C1C1D"/>
<path d="M50.3024 27.0854C51.3887 25.2144 54.1046 25.2144 55.191 27.0854L65.7829 45.3276C66.8692 47.1986 65.5113 49.5373 63.3386 49.5373H42.1548C39.9821 49.5373 38.6241 47.1986 39.7105 45.3276L50.3024 27.0854Z" fill="#1C1C1D"/>
<circle cx="32.44" cy="26.4096" r="3.22134" fill="#1C1C1D"/>
</g></symbol><symbol id="mountains-icon" viewBox="0 0 58 35"><g fill="none">
<path d="M8.64749 17.6139C9.45479 16.2156 11.4731 16.2156 12.2804 17.6139L20.1515 31.2472C20.9588 32.6455 19.9497 34.3934 18.3351 34.3934H2.59275C0.978146 34.3934 -0.0309815 32.6455 0.776318 31.2472L8.64749 17.6139Z" fill="#1C1C1D"/>
<path d="M22.6338 11.903C23.722 10.0288 26.4426 10.0288 27.5309 11.903L38.141 30.1767C39.2292 32.0509 37.8689 34.3937 35.6925 34.3937H14.4721C12.2957 34.3937 10.9354 32.0509 12.0236 30.1767L22.6338 11.903Z" fill="#1C1C1D"/>
<path d="M37.5893 5.50428C38.9871 3.09688 42.4816 3.09688 43.8794 5.50428L57.508 28.9765C58.9058 31.3839 57.1585 34.3931 54.3629 34.3931H27.1058C24.3102 34.3931 22.5629 31.3839 23.9607 28.9765L37.5893 5.50428Z" fill="#1C1C1D"/>
<circle cx="14.6092" cy="4.63513" r="4.14489" fill="#1C1C1D"/>
</g></symbol><symbol id="play-market" viewBox="0 0 25 25"><g fill="currentColor">
<path fill-rule="evenodd" clip-rule="evenodd" d="M1.76418 0.833374C1.70627 1.04956 1.66666 1.28275 1.66666 1.54913V23.4599C1.66666 23.7222 1.70627 23.953 1.76189 24.1667L13.3333 12.5162L1.76418 0.833374Z" fill="currentColor"/>
<path fill-rule="evenodd" clip-rule="evenodd" d="M18.3333 8.26903L4.09826 0.362865C3.53072 0.0182122 2.97201 -0.0691532 2.5 0.0510745L14.7435 11.6667L18.3333 8.26903Z" fill="currentColor"/>
<path fill-rule="evenodd" clip-rule="evenodd" d="M23.1304 11.0569L19.5257 9.16663L15.8333 12.4633L19.5942 15.8333L23.1014 14.0177C24.8136 13.098 24.189 11.6176 23.1304 11.0569Z" fill="currentColor"/>
<path fill-rule="evenodd" clip-rule="evenodd" d="M2.5 24.9389C2.97687 25.0729 3.5464 24.9926 4.12551 24.6389L18.3333 16.804L14.6965 13.3334L2.5 24.9389Z" fill="currentColor"/>
</g></symbol><symbol id="shape" viewBox="0 0 25 25"><g fill="currentColor">
<path fill-rule="evenodd" clip-rule="evenodd" d="M19.873 0H5.12695C2.29995 0 0 2.29995 0 5.12695V19.873C0 22.7 2.29995 25 5.12695 25H19.873C22.7 25 25 22.7 25 19.873V5.12695C25 2.29995 22.7 0 19.873 0ZM7.9252 19.5043C7.69913 19.9255 7.28753 20.1612 6.86487 20.1613C6.65767 20.1613 6.44789 20.1047 6.25594 19.9855C5.67243 19.623 5.47178 18.8175 5.80865 18.1897L6.04899 17.7419H8.871L7.9252 19.5043ZM5.21867 16.9355C4.56476 16.9355 4.03276 16.3989 4.03276 15.7394C4.03276 15.0799 4.56476 14.5434 5.21867 14.5434H7.5515L10.7513 8.95385L9.88409 7.43898C9.55716 6.86785 9.75184 6.13491 10.3181 5.80514H10.3182C10.8845 5.47541 11.6112 5.67185 11.9381 6.24294L12.1207 6.56181L12.3032 6.24299C12.6303 5.6718 13.357 5.47546 13.9232 5.80519C14.1975 5.96493 14.3937 6.22285 14.4757 6.53143C14.5577 6.84001 14.5156 7.16236 14.3572 7.43903L10.2902 14.5434H12.8556L14.225 16.9355H5.21867ZM19.699 16.9094H18.6685L19.5037 18.3138C19.8535 18.9017 19.6452 19.6563 19.0396 19.9958C18.8441 20.1053 18.6271 20.1613 18.4074 20.1613C18.2972 20.1613 18.1864 20.1473 18.077 20.1188C17.7497 20.0336 17.4762 19.8299 17.3068 19.545L12.9028 12.14L14.3674 9.67742L17.2039 14.4468H19.699C20.3984 14.4468 20.9673 14.9991 20.9673 15.6781C20.9673 16.357 20.3984 16.9094 19.699 16.9094Z" fill="currentColor"/>
</g></symbol></svg>